# xmcd
#
# Track frame offsets:
# 150
# 25954
# 44681
# 59011
# 74702
# 97061
# 115091
# 137787
# 157646
# 175466
# 195196
# 218820
# 235839
# 249209
#
# Disc length: 3553 seconds
#
#
# Revision: 0
# Processed by: cddbd v1.5.1PL0 Copyright (c) Steve Scherf et al.
# Submitted via: FreeRIP 2.942 
#
DISCID=c70ddf0e
DTITLE=Various Artist - Pinoy Blonde
DYEAR=2005
DGENRE=Acid Punk
TTITLE0=Pinoy Blonde - 01 - Radioactive Sago Project - Astro
TTITLE1=Pinoy Blonde - 02 - Kwjan - Daliri
TTITLE2=Pinoy Blonde - 03 - Kapatid - Sunday Shindig
TTITLE3=Pinoy Blonde - 04 - Makatha - More
TTITLE4=Pinoy Blonde - 05 - The Brockas - Action! Action!
TTITLE5=Pinoy Blonde - 06 - Mayonnaise - Bakit Part 2
TTITLE6=Pinoy Blonde - 07 - Sugarfree - Kwarto
TTITLE7=Pinoy Blonde - 08 - Twisted Halo - Public Service Announcement
TTITLE8=Pinoy Blonde - 09 - Bamboo - Mr Clay
TTITLE9=Pinoy Blonde - 10 - Imago - Akap
TTITLE10=Pinoy Blonde - 11 - Hellbender - Luntian
TTITLE11=Pinoy Blonde - 12 - Urbandub - Fallen On Deaf Ears
TTITLE12=Pinoy Blonde - 13 - Malaya - Paradise
TTITLE13=Pinoy Blonde - 14 - Pinwheel - Masayang Kalungkutan
EXTD=
EXTT0=
EXTT1=
EXTT2=
EXTT3=
EXTT4=
EXTT5=
EXTT6=
EXTT7=
EXTT8=
EXTT9=
EXTT10=
EXTT11=
EXTT12=
EXTT13=
PLAYORDER=
